<svg width="246" height="300" viewBox="0 0 246 300" fill="none" xmlns="http://www.w3.org/2000/svg">
  <path d="M20.5 72.4138H225.5V300H20.5V72.4138Z" fill="#1F2131"/>
  <path d="M246 186.207L164 206.897V144.828L246 124.138V186.207Z" fill="#1A1C2A"/>
  <path d="M82 258.621L0 279.31V217.241L82 196.552V258.621Z" fill="#1A1C2A"/>
  <path d="M123 124.138C94.71 124.138 71.75 100.966 71.75 72.4138H51.25C51.25 112.345 83.435 144.828 123 144.828C162.565 144.828 194.75 112.345 194.75 72.4138H174.25C174.25 100.966 151.29 124.138 123 124.138Z" fill="#1A1C2A"/>
  <path d="M123 20.6897C151.29 20.6897 174.25 43.8621 174.25 72.4138H194.75C194.75 32.4828 162.565 0 123 0C83.435 0 51.25 32.4828 51.25 72.4138H71.75C71.75 43.8621 94.71 20.6897 123 20.6897Z" fill="#1F2131"/>
</svg>
